<svg
  width="31"
  height="33"
  viewBox="0 0 31 33"
  fill="none"
  xmlns="http://www.w3.org/2000/svg"
  preserveAspectRatio="xMidYMid meet"
>
  <path
    d="M29.3506 15.5952L16.4199 28.5259C14.8358 30.1101 12.6872 31 10.447 31C8.20669 31 6.05817 30.1101 4.47406 28.5259C2.88995 26.9418 2 24.7933 2 22.553C2 20.3128 2.88995 18.1642 4.47406 16.5801L17.4048 3.64937C18.4609 2.5933 19.8932 2 21.3867 2C22.8803 2 24.3126 2.5933 25.3687 3.64937C26.4248 4.70545 27.0181 6.13779 27.0181 7.63131C27.0181 9.12483 26.4248 10.5572 25.3687 11.6133L12.4239 24.544C11.8958 25.072 11.1797 25.3687 10.4329 25.3687C9.68614 25.3687 8.96997 25.072 8.44193 24.544C7.91389 24.016 7.61724 23.2998 7.61724 22.553C7.61724 21.8063 7.91389 21.0901 8.44193 20.5621L20.3877 8.63031"
    stroke="#6DB8F2"
    stroke-width="3"
    stroke-linecap="round"
    stroke-linejoin="round"
  ></path>
</svg>
