<svg id="Layer_1" data-name="Layer 1" xmlns="http://www.w3.org/2000/svg" viewBox="0 0 31 33" width="31" height="33">
  <g id="Object">
    <polygon points="18.7 21.57 19.09 21.13 18.3 21.13 18.7 21.57" style="fill: #fff"/>
    <path d="M4.29,2.25V31.31H20.7V27.17a.67.67,0,0,1,.68-.68H25.7V17.33l-6.06,6.88a1.22,1.22,0,0,1-1.73.11l-.09-.09L15,21.13H6.78v-2h14v0L22,17.79H6.78v-2H23.15v.73l2.55-2.89V2.25Zm18.86,12.2H6.78v-2H23.15Zm0-3.34h-14v-2h14Z" style="fill: #fff"/>
    <path d="M25.7,26.49H21.38a.67.67,0,0,0-.68.68v4.14H4.29V2.25H25.7V13.62l1.36-1.54V1.57a.69.69,0,0,0-.68-.68H3.61a.69.69,0,0,0-.68.68h0V32a.67.67,0,0,0,.68.67H22.23a.68.68,0,0,0,.47-.19l2.1-2.08h0l2.05-2.07a.66.66,0,0,0,.2-.48v-12L25.7,17.33Zm-3.64,4.84V27.84h3.61Z" style="fill: #616e7d"/>
    <polygon points="22.06 31.33 25.67 27.84 22.06 27.84 22.06 31.33" style="fill: #fff"/>
    <rect x="9.16" y="9.1" width="13.99" height="2.01" style="fill: #82bfab"/>
    <rect x="6.78" y="12.44" width="16.37" height="2.01" style="fill: #82bfab"/>
    <polygon points="6.78 15.78 6.78 17.79 22.02 17.79 23.15 16.51 23.15 15.78 6.78 15.78" style="fill: #82bfab"/>
    <path d="M6.78,19.12v2H15l-.49-.53-.6-.66a.32.32,0,0,1,0-.47.32.32,0,0,1,.23-.09h.08l3.11.76a.32.32,0,0,1,.17.1l.8.88h.79l1.73-2v0Z" style="fill: #82bfab"/>
    <path d="M30.55,11.3l-1.33-1.17A.33.33,0,0,0,29,10h0a.35.35,0,0,0-.23.12l-1.69,1.92L25.7,13.62l-2.55,2.89L22,17.79l-1.2,1.36-1.74,2-.38.44-.4-.44-.81-.88a.32.32,0,0,0-.17-.1l-3.11-.76h-.08a.34.34,0,0,0-.34.34.31.31,0,0,0,.09.22l.6.66.49.53,2.84,3.1a1.23,1.23,0,0,0,1.73.07l.09-.09,6.06-6.88,1.36-1.54,3.52-4A.34.34,0,0,0,30.55,11.3Z" style="fill: #aad4c8"/>
  </g>
</svg>
