<svg width="104" height="81" viewBox="0 0 104 81" fill="none" xmlns="http://www.w3.org/2000/svg">
<g clip-path="url(#clip0_338_2535)">
<path d="M86.908 35.7667C87.5708 34.0778 87.9426 32.231 87.9426 30.3054C87.9426 21.9398 80.9912 15.1527 72.4233 15.1527C69.2386 15.1527 66.2641 16.0997 63.8069 17.7097C59.3289 10.1334 50.9711 5.0509 41.3847 5.0509C27.0941 5.0509 15.5193 16.3523 15.5193 30.3054C15.5193 30.7315 15.5354 31.1577 15.5516 31.5839C6.4987 34.6933 0 43.122 0 53.0344C0 65.5827 10.427 75.7634 23.2789 75.7634H82.7695C94.1988 75.7634 103.462 66.7192 103.462 55.5598C103.462 45.7895 96.3489 37.6292 86.908 35.7667ZM63.5967 45.4581H53.0242V63.1362C53.0242 64.5252 51.8603 65.6616 50.4377 65.6616H42.678C41.2554 65.6616 40.0915 64.5252 40.0915 63.1362V45.4581H29.519C27.2072 45.4581 26.0595 42.7432 27.6922 41.149L44.7311 24.5126C45.7334 23.534 47.3823 23.534 48.3846 24.5126L65.4235 41.149C67.0562 42.7432 65.8923 45.4581 63.5967 45.4581Z" fill="#5E9BFF"/>
</g>
<defs>
<clipPath id="clip0_338_2535">
<rect width="103.462" height="80.8143" fill="white"/>
</clipPath>
</defs>
</svg>
