<svg
  width="16"
  height="17"
  viewBox="0 0 16 17"
  fill="currentColor"
  stroke="currentColor"
  xmlns="http://www.w3.org/2000/svg"
  class="flex-grow-0 flex-shrink-0 w-4 h-4 relative"
  preserveAspectRatio="xMidYMid meet"
>
  <g clip-path="url(#clip0_13_81)">
    <path
      d="M1.51356 12.9579H1.60005L5.77301 12.0498C5.85429 12.0362 5.92961 11.9986 5.98921 11.9417L13.0594 4.87145C13.5759 4.35608 13.864 3.6551 13.8594 2.92553C13.8604 2.19029 13.5731 1.48397 13.0594 0.957971C12.5441 0.441488 11.8431 0.153326 11.1135 0.158002C10.3792 0.151505 9.67494 0.448855 9.16756 0.979616L2.11894 8.0498C2.05678 8.09984 2.01146 8.16775 1.98919 8.24439L1.08113 12.4174C1.05634 12.5672 1.10451 12.7198 1.21087 12.8282C1.2907 12.9096 1.3995 12.9563 1.51356 12.9579ZM11.1135 1.02286C12.1524 1.02278 12.9946 1.86492 12.9947 2.9038C12.9947 2.91105 12.9946 2.91829 12.9945 2.92553C13.0016 3.42045 12.8064 3.89683 12.454 4.24442L9.79458 1.56335C10.1449 1.21518 10.6195 1.02067 11.1135 1.02286ZM9.18916 2.19041L11.8486 4.84984L5.68647 10.9903L3.02704 8.35249L9.18916 2.19041ZM2.68111 9.21739L4.82161 11.3579L2.07569 11.9633L2.68111 9.21739Z"
      fill="#565656"
    ></path>
    <path
      d="M15.2432 15.293H0.756802C0.51797 15.293 0.324371 15.4866 0.324371 15.7255C0.324371 15.9643 0.51797 16.1579 0.756802 16.1579H15.2432C15.482 16.1579 15.6756 15.9643 15.6756 15.7255C15.6756 15.4866 15.482 15.293 15.2432 15.293Z"
      fill="#565656"
    ></path>
  </g>
  <defs>
    <clipPath id="clip0_13_81">
      <rect width="16" height="16" fill="white" transform="translate(0 0.157898)"></rect>
    </clipPath>
  </defs>
</svg>
