<svg width="32" height="34" viewBox="0 0 32 34" fill="none" xmlns="http://www.w3.org/2000/svg">
<path d="M25.76 32.7857H6.24005C5.59496 32.7899 4.95635 32.6489 4.36619 32.3721C3.77603 32.0953 3.24769 31.689 2.8159 31.1797C2.38412 30.6705 2.05866 30.0699 1.86092 29.4175C1.66318 28.7651 1.59765 28.0755 1.66862 27.3943L3.20005 13.09C3.2622 12.4933 3.53018 11.9421 3.95229 11.543C4.3744 11.1438 4.9207 10.9249 5.48576 10.9286H26.5143C27.0794 10.9249 27.6257 11.1438 28.0478 11.543C28.4699 11.9421 28.7379 12.4933 28.8 13.09L30.2858 27.3943C30.3563 28.0715 30.292 28.7569 30.0969 29.4059C29.9019 30.0549 29.5805 30.6531 29.1537 31.1616C28.7269 31.6701 28.2042 32.0774 27.6195 32.3572C27.0348 32.6371 26.4013 32.783 25.76 32.7857Z" stroke="#0085FF" stroke-linecap="round" stroke-linejoin="round"/>
<path d="M6.85718 10.9286C6.85718 8.35219 7.82044 5.88132 9.53506 4.05954C11.2497 2.23776 13.5752 1.21429 16 1.21429C18.4249 1.21429 20.7504 2.23776 22.465 4.05954C24.1796 5.88132 25.1429 8.35219 25.1429 10.9286" stroke="#0085FF" stroke-linecap="round" stroke-linejoin="round"/>
<path d="M10.2858 18.2143H21.7143" stroke="#0085FF" stroke-linecap="round" stroke-linejoin="round"/>
</svg>
