<svg width="24" height="19" viewBox="0 0 24 19" fill="none" xmlns="http://www.w3.org/2000/svg">
<path d="M15.6235 3.88432H8.69647L7.31859 2.17844C7.27223 2.1204 7.20278 2.08785 7.13035 2.09021H1.54165C0.688376 2.09668 0 2.81903 0 3.70785V14.2C0.00103529 15.0919 0.69487 15.8146 1.55106 15.8157H15.6235C16.4797 15.8146 17.1736 15.0919 17.1746 14.2V5.50001C17.1736 4.60815 16.4797 3.8854 15.6235 3.88432Z" fill="#181818"/>
<path d="M17.6585 1.79424H10.7295L9.35166 0.0883546C9.3053 0.0303154 9.23585 -0.00223361 9.16342 0.000119332H3.5766C2.80239 0.00144286 2.1477 0.597227 2.04248 1.3962H7.13801C7.40521 1.39551 7.6589 1.51835 7.83072 1.73149L9.00719 3.18835H15.6237C16.8474 3.19051 17.839 4.2234 17.8411 5.49816V13.7099C18.617 13.6091 19.1995 12.9225 19.2001 12.108V3.40796C19.1981 2.52066 18.5102 1.80071 17.6585 1.79424Z" fill="#181818"/>
<rect x="2.88013" y="11" width="5.76" height="2" rx="1" fill="white"/>
<ellipse cx="17.2801" cy="12" rx="6.72" ry="7" fill="white"/>
<path d="M16.8618 10.9428L16.8618 10.9428L16.8589 10.9454C16.7269 11.0639 16.5517 11.2406 16.4133 11.5055C16.2738 11.7728 16.185 12.1038 16.185 12.5179C16.185 12.731 16.2043 13.0233 16.3879 13.2507C16.4089 13.2766 16.4308 13.3003 16.4533 13.322C16.1933 13.5302 16.0334 13.8561 16.0334 14.2001C16.0334 14.7632 16.4719 15.3083 17.1096 15.3083C17.739 15.3083 18.1934 14.772 18.1934 14.2001C18.1934 13.8574 18.0339 13.5379 17.7794 13.331C17.7896 13.3222 17.7997 13.3131 17.8095 13.3037C18.0091 13.1139 18.0493 12.878 18.0493 12.7232C18.0493 12.5028 18.0559 12.4282 18.0767 12.3694C18.0902 12.3313 18.1249 12.258 18.2892 12.1241C18.3991 12.035 18.6502 11.8283 18.8746 11.5305C19.0983 11.2336 19.3231 10.8096 19.3231 10.2907C19.3231 9.18649 18.3604 8.48758 17.2081 8.48758C15.9814 8.48758 15.2145 9.27553 15.2145 10.0459C15.2145 10.3504 15.3445 10.6021 15.5436 10.7693C15.7298 10.9258 15.9603 10.9961 16.1694 10.9961C16.4267 10.9961 16.6195 10.888 16.7551 10.745C16.8119 10.685 16.8547 10.6233 16.8826 10.5815C16.8995 10.5563 16.91 10.54 16.9187 10.5265C16.9293 10.5101 16.9373 10.4977 16.9509 10.4782C16.9839 10.431 16.9978 10.4218 17.0065 10.4168C17.0146 10.4121 17.0591 10.3879 17.1854 10.3879C17.2429 10.3879 17.2886 10.3946 17.3222 10.4036C17.3446 10.4096 17.3592 10.416 17.3677 10.4206C17.3677 10.4219 17.3678 10.4234 17.3678 10.425C17.3678 10.4543 17.3585 10.5037 17.2647 10.6007C17.2178 10.6492 17.1605 10.6984 17.0893 10.7561C17.0743 10.7682 17.0576 10.7816 17.0398 10.7958C16.9839 10.8405 16.9175 10.8936 16.8618 10.9428ZM12.02 12C12.02 8.94023 14.3916 6.5 17.28 6.5C20.1687 6.5 22.54 8.9405 22.54 12C22.54 15.0598 20.1684 17.5 17.28 17.5C14.3914 17.5 12.02 15.0595 12.02 12Z" fill="#757897" stroke="#181818"/>
</svg>
