<svg width="32" height="32" viewBox="0 0 32 32" fill="none" xmlns="http://www.w3.org/2000/svg">
<g clip-path="url(#clip0_305_1218)">
<path d="M30.5371 15.1315C30.5762 14.8124 30.5475 14.4887 30.453 14.1815C30.3585 13.8743 30.2002 13.5905 29.9886 13.3486C29.7744 13.1048 29.5107 12.9094 29.2151 12.7754C28.9195 12.6414 28.5988 12.5719 28.2743 12.5715H3.72571C3.40118 12.5719 3.08045 12.6414 2.78486 12.7754C2.48928 12.9094 2.22562 13.1048 2.01143 13.3486C1.79978 13.5905 1.64152 13.8743 1.547 14.1815C1.45247 14.4887 1.4238 14.8124 1.46286 15.1315L3.17714 28.8458C3.24451 29.4033 3.51477 29.9165 3.93634 30.2874C4.35791 30.6584 4.90131 30.8612 5.46286 30.8572H26.5829C27.1444 30.8612 27.6878 30.6584 28.1094 30.2874C28.5309 29.9165 28.8012 29.4033 28.8686 28.8458L30.5371 15.1315Z" stroke="#0085FF" stroke-linecap="round" stroke-linejoin="round"/>
<path d="M5.71428 12.5715V11.4286C5.71428 8.70066 6.79796 6.08444 8.7269 4.1555C10.6558 2.22655 13.2721 1.14288 16 1.14288C18.7279 1.14288 21.3442 2.22655 23.2731 4.1555C25.202 6.08444 26.2857 8.70066 26.2857 11.4286V12.5715" stroke="#0085FF" stroke-linecap="round" stroke-linejoin="round"/>
<path d="M11.4286 19.4286V24" stroke="#0085FF" stroke-linecap="round" stroke-linejoin="round"/>
<path d="M20.5714 19.4286V24" stroke="#0085FF" stroke-linecap="round" stroke-linejoin="round"/>
</g>
<defs>
<clipPath id="clip0_305_1218">
<rect width="32" height="32" fill="white"/>
</clipPath>
</defs>
</svg>
