<svg width="32" height="32" viewBox="0 0 32 32" fill="none" xmlns="http://www.w3.org/2000/svg">
<circle cx="18.0781" cy="8.2856" r="1" transform="rotate(-9 18.0781 8.2856)" fill="#0085FF"/>
<path d="M8.04476 8.86228C7.49928 8.94868 7.12711 9.46092 7.21351 10.0064C7.29991 10.5519 7.81215 10.9241 8.35763 10.8377L8.04476 8.86228ZM12.3084 10.2119C12.8539 10.1255 13.226 9.61328 13.1396 9.0678C13.0532 8.52231 12.541 8.15015 11.9955 8.23654L12.3084 10.2119ZM8.98337 14.7884C8.43789 14.8748 8.06572 15.387 8.15212 15.9325C8.23851 16.478 8.75075 16.8502 9.29624 16.7638L8.98337 14.7884ZM19.1731 15.1994C19.7186 15.113 20.0908 14.6008 20.0044 14.0553C19.918 13.5098 19.4057 13.1377 18.8603 13.2241L19.1731 15.1994ZM9.60911 18.7392C9.06362 18.8256 8.69146 19.3378 8.77785 19.8833C8.86425 20.4288 9.37649 20.8009 9.92198 20.7145L9.60911 18.7392ZM17.8235 19.4631C18.369 19.3767 18.7411 18.8644 18.6547 18.3189C18.5683 17.7735 18.0561 17.4013 17.5106 17.4877L17.8235 19.4631ZM8.72877 25.9659L8.57234 24.9782L8.72877 25.9659ZM6.44053 24.3033L5.45284 24.4598L6.44053 24.3033ZM24.2189 21.4875L23.2312 21.644L24.2189 21.4875ZM22.5564 23.7758L22.7128 24.7635L22.5564 23.7758ZM19.2713 3.03432L19.1149 2.04663L19.2713 3.03432ZM21.5595 4.69682L22.5472 4.54039L21.5595 4.69682ZM5.44365 5.2244L5.60008 6.21209L5.44365 5.2244ZM3.78114 7.51264L4.76883 7.35621L3.78114 7.51264ZM26 10V27H28V10H26ZM25 28H11V30H25V28ZM11 28C10.4477 28 10 27.5523 10 27H8.00003C8.00003 28.6569 9.34318 30 11 30V28ZM26 27C26 27.5523 25.5523 28 25 28V30C26.6569 30 28 28.6569 28 27H26ZM25 9.00004C25.5523 9.00004 26 9.44776 26 10H28C28 8.34319 26.6569 7.00004 25 7.00004V9.00004ZM10 27V25H8.00003V27H10ZM25 7.00004H22V9.00004H25V7.00004ZM8.35763 10.8377L12.3084 10.2119L11.9955 8.23654L8.04476 8.86228L8.35763 10.8377ZM9.29624 16.7638L19.1731 15.1994L18.8603 13.2241L8.98337 14.7884L9.29624 16.7638ZM9.92198 20.7145L17.8235 19.4631L17.5106 17.4877L9.60911 18.7392L9.92198 20.7145ZM5.60008 6.21209L19.4277 4.022L19.1149 2.04663L5.28721 4.23671L5.60008 6.21209ZM20.5718 4.85326L23.2312 21.644L25.2066 21.3311L22.5472 4.54039L20.5718 4.85326ZM22.4 22.7881L8.57234 24.9782L8.88521 26.9535L22.7128 24.7635L22.4 22.7881ZM7.42822 24.1469L4.76883 7.35621L2.79345 7.66908L5.45284 24.4598L7.42822 24.1469ZM8.57234 24.9782C8.02685 25.0646 7.51461 24.6924 7.42822 24.1469L5.45284 24.4598C5.71203 26.0962 7.24875 27.2127 8.88521 26.9535L8.57234 24.9782ZM23.2312 21.644C23.3176 22.1894 22.9455 22.7017 22.4 22.7881L22.7128 24.7635C24.3493 24.5043 25.4658 22.9675 25.2066 21.3311L23.2312 21.644ZM19.4277 4.022C19.9732 3.93561 20.4854 4.30777 20.5718 4.85326L22.5472 4.54039C22.288 2.90393 20.7513 1.78744 19.1149 2.04663L19.4277 4.022ZM5.28721 4.23671C3.65076 4.4959 2.53426 6.03262 2.79345 7.66908L4.76883 7.35621C4.68243 6.81072 5.0546 6.29848 5.60008 6.21209L5.28721 4.23671Z" fill="#0085FF"/>
</svg>
