<svg width="37" height="42" viewBox="0 0 37 42" fill="none" xmlns="http://www.w3.org/2000/svg">
<path d="M2.85414 0.369629H24.7023L36.2827 11.865V38.8071C36.2827 39.4867 36.0118 40.1385 35.5296 40.6191C35.0473 41.0997 34.3933 41.3696 33.7113 41.3696H2.85414C2.17216 41.3696 1.51811 41.0997 1.03587 40.6191C0.553632 40.1385 0.282715 39.4867 0.282715 38.8071V2.93213C0.282715 2.25251 0.553632 1.60073 1.03587 1.12017C1.51811 0.639606 2.17216 0.369629 2.85414 0.369629Z" fill="#4785FF"/>
<path d="M36.2454 11.9009H27.2827C26.6007 11.9009 25.9467 11.6309 25.4644 11.1503C24.9822 10.6698 24.7113 10.018 24.7113 9.33838V0.39525L36.2454 11.9009Z" fill="#81A6F1"/>
<path d="M26.6373 19.7972C27.068 19.7972 27.2789 19.4231 27.2789 19.0605C27.2789 18.6851 27.059 18.3225 26.6373 18.3225H24.1841C23.7046 18.3225 23.4371 18.7184 23.4371 19.1553V25.1631C23.4371 25.6987 23.7431 25.9959 24.1571 25.9959C24.5686 25.9959 24.8759 25.6987 24.8759 25.1631V23.5141H26.3596C26.8199 23.5141 27.05 23.1387 27.05 22.7659C27.05 22.4007 26.8199 22.0381 26.3596 22.0381H24.8759V19.7972H26.6373ZM18.3457 18.3225H16.5509C16.0636 18.3225 15.7177 18.6556 15.7177 19.1502V25.1682C15.7177 25.7819 16.2153 25.9741 16.5714 25.9741H18.455C20.6844 25.9741 22.1566 24.5122 22.1566 22.2559C22.1553 19.8703 20.7693 18.3225 18.3457 18.3225ZM18.4319 24.4904H17.3377V19.8062H18.3239C19.8166 19.8062 20.4659 20.8043 20.4659 22.1816C20.4659 23.4706 19.8281 24.4904 18.4319 24.4904ZM11.8567 18.3225H10.0786C9.57586 18.3225 9.29557 18.6531 9.29557 19.1553V25.1631C9.29557 25.6987 9.617 25.9959 10.049 25.9959C10.481 25.9959 10.8024 25.6987 10.8024 25.1631V23.4091H11.9171C13.2929 23.4091 14.4281 22.4379 14.4281 20.876C14.4281 19.3475 13.3327 18.3225 11.8567 18.3225ZM11.8271 21.9997H10.8024V19.7332H11.8271C12.4597 19.7332 12.8621 20.2252 12.8621 20.8671C12.8609 21.5077 12.4597 21.9997 11.8271 21.9997Z" fill="white"/>
</svg>
