<svg width="37" height="42" viewBox="0 0 37 42" fill="none"
    xmlns="http://www.w3.org/2000/svg" class="flex-grow-0 flex-shrink-0" preserveAspectRatio="none">
    <path d="M3.35402 0.369629H25.2022L36.7826 11.865V38.8071C36.7826 39.4867 36.5117 40.1385 36.0294 40.6191C35.5472 41.0997 34.8932 41.3696 34.2112 41.3696H3.35402C2.67204 41.3696 2.01798 41.0997 1.53575 40.6191C1.05351 40.1385 0.782593 39.4867 0.782593 38.8071V2.93213C0.782593 2.25251 1.05351 1.60073 1.53575 1.12017C2.01798 0.639606 2.67204 0.369629 3.35402 0.369629Z" fill="#4785FF"></path>
    <path d="M36.7453 11.9009H27.7826C27.1006 11.9009 26.4466 11.6309 25.9643 11.1503C25.4821 10.6698 25.2112 10.018 25.2112 9.33838V0.39525L36.7453 11.9009Z" fill="#81A6F1"></path>
    <path d="M27.1372 19.7972C27.5679 19.7972 27.7787 19.4231 27.7787 19.0605C27.7787 18.6851 27.5589 18.3225 27.1372 18.3225H24.684C24.2045 18.3225 23.937 18.7184 23.937 19.1553V25.1631C23.937 25.6987 24.243 25.9959 24.657 25.9959C25.0684 25.9959 25.3757 25.6987 25.3757 25.1631V23.5141H26.8594C27.3197 23.5141 27.5499 23.1387 27.5499 22.7659C27.5499 22.4007 27.3197 22.0381 26.8594 22.0381H25.3757V19.7972H27.1372ZM18.8456 18.3225H17.0507C16.5634 18.3225 16.2176 18.6556 16.2176 19.1502V25.1682C16.2176 25.7819 16.7152 25.9741 17.0713 25.9741H18.9549C21.1843 25.9741 22.6565 24.5122 22.6565 22.2559C22.6552 19.8703 21.2692 18.3225 18.8456 18.3225ZM18.9317 24.4904H17.8376V19.8062H18.8237C20.3164 19.8062 20.9657 20.8043 20.9657 22.1816C20.9657 23.4706 20.328 24.4904 18.9317 24.4904ZM12.3566 18.3225H10.5785C10.0757 18.3225 9.79545 18.6531 9.79545 19.1553V25.1631C9.79545 25.6987 10.1169 25.9959 10.5489 25.9959C10.9809 25.9959 11.3023 25.6987 11.3023 25.1631V23.4091H12.417C13.7927 23.4091 14.928 22.4379 14.928 20.876C14.928 19.3475 13.8326 18.3225 12.3566 18.3225ZM12.327 21.9997H11.3023V19.7332H12.327C12.9596 19.7332 13.362 20.2252 13.362 20.8671C13.3607 21.5077 12.9596 21.9997 12.327 21.9997Z" fill="#F5F5F5"></path>
</svg>
