<svg
  width="37"
  height="42"
  viewBox="0 0 37 42"
  fill="none"
  xmlns="http://www.w3.org/2000/svg"
  class="flex-grow-0 flex-shrink-0"
  preserveAspectRatio="none"
>
  <path
    d="M3.35402 0.239258H25.2022L36.7826 11.7346V38.6768C36.7826 39.3564 36.5117 40.0082 36.0294 40.4887C35.5472 40.9693 34.8932 41.2393 34.2112 41.2393H3.35402C2.67204 41.2393 2.01798 40.9693 1.53575 40.4887C1.05351 40.0082 0.782593 39.3564 0.782593 38.6768V2.80176C0.782593 2.12214 1.05351 1.47036 1.53575 0.989797C2.01798 0.509235 2.67204 0.239258 3.35402 0.239258Z"
    fill="white"
  ></path>
  <path
    d="M36.7453 11.7705H27.7826C27.1006 11.7705 26.4466 11.5005 25.9643 11.02C25.4821 10.5394 25.2112 9.88762 25.2112 9.208V0.264879L36.7453 11.7705Z"
    fill="#D6E4FF"
  ></path>
  <path
    d="M27.1372 19.6669C27.5679 19.6669 27.7787 19.2927 27.7787 18.9301C27.7787 18.5547 27.5589 18.1921 27.1372 18.1921H24.684C24.2045 18.1921 23.937 18.588 23.937 19.0249V25.0327C23.937 25.5683 24.243 25.8655 24.657 25.8655C25.0684 25.8655 25.3757 25.5683 25.3757 25.0327V23.3838H26.8594C27.3197 23.3838 27.5499 23.0084 27.5499 22.6355C27.5499 22.2704 27.3197 21.9078 26.8594 21.9078H25.3757V19.6669H27.1372ZM18.8456 18.1921H17.0507C16.5634 18.1921 16.2176 18.5253 16.2176 19.0198V25.0379C16.2176 25.6516 16.7152 25.8438 17.0713 25.8438H18.9549C21.1843 25.8438 22.6565 24.3819 22.6565 22.1256C22.6552 19.7399 21.2692 18.1921 18.8456 18.1921ZM18.9317 24.3601H17.8376V19.6758H18.8237C20.3164 19.6758 20.9657 20.6739 20.9657 22.0513C20.9657 23.3402 20.328 24.3601 18.9317 24.3601ZM12.3566 18.1921H10.5785C10.0757 18.1921 9.79545 18.5227 9.79545 19.0249V25.0327C9.79545 25.5683 10.1169 25.8655 10.5489 25.8655C10.9809 25.8655 11.3023 25.5683 11.3023 25.0327V23.2787H12.417C13.7927 23.2787 14.928 22.3075 14.928 20.7457C14.928 19.2171 13.8326 18.1921 12.3566 18.1921ZM12.327 21.8693H11.3023V19.6028H12.327C12.9596 19.6028 13.362 20.0948 13.362 20.7367C13.3607 21.3773 12.9596 21.8693 12.327 21.8693Z"
    fill="#6DB8F2"
  ></path>
</svg>
