<svg width="54" height="45" viewBox="0 0 54 45" fill="none" xmlns="http://www.w3.org/2000/svg">
<rect x="0.977295" y="0.387451" width="52.2164" height="44.225" rx="15" fill="#0085FF"/>
<path d="M34.7058 28.7922L33.3058 27.3922M27.3558 28.0922C28.2291 28.0922 29.0938 27.9202 29.9007 27.586C30.7075 27.2518 31.4406 26.762 32.0581 26.1445C32.6756 25.527 33.1654 24.7939 33.4996 23.9871C33.8338 23.1803 34.0058 22.3155 34.0058 21.4422C34.0058 20.5689 33.8338 19.7042 33.4996 18.8974C33.1654 18.0906 32.6756 17.3575 32.0581 16.74C31.4406 16.1225 30.7075 15.6326 29.9007 15.2984C29.0938 14.9642 28.2291 14.7922 27.3558 14.7922C25.5921 14.7922 23.9007 15.4929 22.6536 16.74C21.4064 17.9871 20.7058 19.6785 20.7058 21.4422C20.7058 23.2059 21.4064 24.8974 22.6536 26.1445C23.9007 27.3916 25.5921 28.0922 27.3558 28.0922V28.0922Z" stroke="white" stroke-width="1.5" stroke-linecap="round" stroke-linejoin="round"/>
</svg>
