<svg xmlns="http://www.w3.org/2000/svg" width="27" height="24" viewBox="0 0 27 24" fill="none">
<path d="M13.8286 15C15.6274 15 17.0857 13.6569 17.0857 12C17.0857 10.3431 15.6274 9 13.8286 9C12.0297 9 10.5714 10.3431 10.5714 12C10.5714 13.6569 12.0297 15 13.8286 15Z" stroke="#E3E3E3" stroke-width="2" stroke-linecap="round" stroke-linejoin="round"/>
<path d="M21.8629 15C21.7184 15.3016 21.6752 15.6362 21.7391 15.9606C21.803 16.285 21.9709 16.5843 22.2212 16.82L22.2863 16.88C22.4882 17.0657 22.6484 17.2863 22.7576 17.5291C22.8669 17.7719 22.9232 18.0322 22.9232 18.295C22.9232 18.5578 22.8669 18.8181 22.7576 19.0609C22.6484 19.3037 22.4882 19.5243 22.2863 19.71C22.0846 19.896 21.8452 20.0435 21.5816 20.1441C21.3179 20.2448 21.0354 20.2966 20.75 20.2966C20.4647 20.2966 20.1821 20.2448 19.9185 20.1441C19.6549 20.0435 19.4154 19.896 19.2137 19.71L19.1486 19.65C18.8927 19.4195 18.5677 19.2648 18.2155 19.206C17.8633 19.1472 17.5001 19.1869 17.1726 19.32C16.8515 19.4468 16.5776 19.6572 16.3847 19.9255C16.1918 20.1938 16.0883 20.5082 16.0869 20.83V21C16.0869 21.5304 15.8581 22.0391 15.4509 22.4142C15.0437 22.7893 14.4914 23 13.9155 23C13.3396 23 12.7872 22.7893 12.38 22.4142C11.9728 22.0391 11.744 21.5304 11.744 21V20.91C11.7356 20.579 11.6193 20.258 11.4102 19.9887C11.2011 19.7194 10.9088 19.5143 10.5715 19.4C10.244 19.2669 9.88073 19.2272 9.52853 19.286C9.17633 19.3448 8.85134 19.4995 8.59546 19.73L8.53031 19.79C8.32865 19.976 8.08916 20.1235 7.82555 20.2241C7.56195 20.3248 7.27939 20.3766 6.99403 20.3766C6.70867 20.3766 6.42611 20.3248 6.1625 20.2241C5.89889 20.1235 5.65941 19.976 5.45774 19.79C5.25585 19.6043 5.09569 19.3837 4.98641 19.1409C4.87714 18.8981 4.82089 18.6378 4.82089 18.375C4.82089 18.1122 4.87714 17.8519 4.98641 17.6091C5.09569 17.3663 5.25585 17.1457 5.45774 16.96L5.52288 16.9C5.77318 16.6643 5.94109 16.365 6.00495 16.0406C6.06881 15.7162 6.0257 15.3816 5.88117 15.08C5.74354 14.7842 5.51502 14.532 5.22373 14.3543C4.93245 14.1766 4.59111 14.0813 4.24174 14.08H4.05717C3.48127 14.08 2.92896 13.8693 2.52174 13.4942C2.11452 13.1191 1.88574 12.6104 1.88574 12.08C1.88574 11.5496 2.11452 11.0409 2.52174 10.6658C2.92896 10.2907 3.48127 10.08 4.05717 10.08H4.15488C4.51425 10.0723 4.86278 9.96512 5.15515 9.77251C5.44753 9.5799 5.67023 9.31074 5.79431 9C5.93884 8.69838 5.98195 8.36381 5.91809 8.03941C5.85423 7.71502 5.68632 7.41568 5.43603 7.18L5.37088 7.12C5.16899 6.93425 5.00883 6.71368 4.89956 6.47088C4.79028 6.22808 4.73403 5.96783 4.73403 5.705C4.73403 5.44217 4.79028 5.18192 4.89956 4.93912C5.00883 4.69632 5.16899 4.47575 5.37088 4.29C5.57255 4.10405 5.81204 3.95653 6.07564 3.85588C6.33925 3.75523 6.62181 3.70343 6.90717 3.70343C7.19253 3.70343 7.47509 3.75523 7.7387 3.85588C8.00231 3.95653 8.24179 4.10405 8.44346 4.29L8.5086 4.35C8.76448 4.58054 9.08947 4.73519 9.44167 4.794C9.79387 4.85282 10.1571 4.81312 10.4846 4.68H10.5715C10.8926 4.55324 11.1664 4.34276 11.3594 4.07447C11.5523 3.80618 11.6558 3.49179 11.6572 3.17V3C11.6572 2.46957 11.8859 1.96086 12.2932 1.58579C12.7004 1.21071 13.2527 1 13.8286 1C14.4045 1 14.9568 1.21071 15.364 1.58579C15.7713 1.96086 16 2.46957 16 3V3.09C16.0014 3.41179 16.1049 3.72618 16.2978 3.99447C16.4908 4.26276 16.7646 4.47324 17.0857 4.6C17.4132 4.73312 17.7765 4.77282 18.1287 4.714C18.4809 4.65519 18.8059 4.50054 19.0617 4.27L19.1269 4.21C19.3286 4.02405 19.568 3.87653 19.8316 3.77588C20.0952 3.67523 20.3778 3.62343 20.6632 3.62343C20.9485 3.62343 21.2311 3.67523 21.4947 3.77588C21.7583 3.87653 21.9978 4.02405 22.1995 4.21C22.4013 4.39575 22.5615 4.61632 22.6708 4.85912C22.7801 5.10192 22.8363 5.36217 22.8363 5.625C22.8363 5.88783 22.7801 6.14808 22.6708 6.39088C22.5615 6.63368 22.4013 6.85425 22.1995 7.04L22.1343 7.1C21.884 7.33568 21.7161 7.63502 21.6523 7.95941C21.5884 8.28381 21.6315 8.61838 21.776 8.92V9C21.9137 9.29577 22.1422 9.54802 22.4335 9.72569C22.7248 9.90337 23.0661 9.99872 23.4155 10H23.6C24.1759 10 24.7282 10.2107 25.1355 10.5858C25.5427 10.9609 25.7715 11.4696 25.7715 12C25.7715 12.5304 25.5427 13.0391 25.1355 13.4142C24.7282 13.7893 24.1759 14 23.6 14H23.5023C23.1529 14.0013 22.8116 14.0966 22.5203 14.2743C22.229 14.452 22.0005 14.7042 21.8629 15Z" stroke="#E3E3E3" stroke-width="2" stroke-linecap="round" stroke-linejoin="round"/>
</svg>