<svg width="22" height="22" viewBox="0 0 22 22" fill="none" xmlns="http://www.w3.org/2000/svg">
<path d="M11.064 2.12512C13.4649 2.12512 15.7676 3.05638 17.4653 4.71402C19.1631 6.37167 20.1169 8.61992 20.1169 10.9642C20.1169 13.3085 19.1631 15.5567 17.4653 17.2143C15.7676 18.872 13.4649 19.8033 11.064 19.8033C8.66298 19.8033 6.36033 18.872 4.66258 17.2143C2.96483 15.5567 2.01105 13.3085 2.01105 10.9642C2.01105 8.61992 2.96483 6.37167 4.66258 4.71402C6.36033 3.05638 8.66298 2.12512 11.064 2.12512ZM9.93623 12.708L7.92519 10.7432C7.85309 10.6728 7.7675 10.617 7.67331 10.5789C7.57911 10.5408 7.47815 10.5212 7.37619 10.5212C7.27423 10.5212 7.17327 10.5408 7.07908 10.5789C6.98488 10.617 6.89929 10.6728 6.8272 10.7432C6.68159 10.8854 6.5998 11.0782 6.5998 11.2792C6.5998 11.4803 6.68159 11.6731 6.8272 11.8153L9.38788 14.3155C9.45977 14.3862 9.54529 14.4424 9.63952 14.4807C9.73374 14.519 9.8348 14.5387 9.93687 14.5387C10.0389 14.5387 10.14 14.519 10.2342 14.4807C10.3285 14.4424 10.414 14.3862 10.4859 14.3155L15.7883 9.13703C15.8613 9.06693 15.9195 8.9834 15.9593 8.89126C15.9991 8.79911 16.0199 8.70018 16.0204 8.60017C16.0208 8.50016 16.001 8.40105 15.9621 8.30855C15.9231 8.21605 15.8658 8.132 15.7934 8.06124C15.721 7.99048 15.635 7.93441 15.5403 7.89627C15.4456 7.85813 15.3441 7.83867 15.2417 7.83902C15.1393 7.83937 15.0379 7.85951 14.9435 7.89829C14.8491 7.93708 14.7635 7.99372 14.6916 8.06497L9.93623 12.708Z" fill="#06C00D"/>
</svg>
